<svg width="24" height="24" viewBox="0 0 24 24" fill="none" xmlns="http://www.w3.org/2000/svg">
<path d="M22 12C22 17.5228 17.5228 22 12 22C6.47715 22 2 17.5228 2 12C2 6.47715 6.47715 2 12 2C17.5228 2 22 6.47715 22 12Z" stroke="#B2B2B2" stroke-width="1.5"/>
<path fill-rule="evenodd" clip-rule="evenodd" d="M8.6922 10.8811C8.11952 10.8811 8 10.9935 8 11.5319V12.5081C8 13.0466 8.11952 13.1589 8.6922 13.1589H10.0766V17.0637C10.0766 17.6021 10.1961 17.7145 10.7688 17.7145H12.1532C12.7259 17.7145 12.8454 17.6021 12.8454 17.0637V13.1589H14.3999C14.8342 13.1589 14.9462 13.0796 15.0655 12.687L15.3622 11.7107C15.5665 11.0382 15.4406 10.8811 14.6965 10.8811H12.8454V9.2542C12.8454 8.89477 13.1553 8.6034 13.5376 8.6034H15.5078C16.0804 8.6034 16.2 8.49103 16.2 7.95261V6.65103C16.2 6.11261 16.0804 6.00024 15.5078 6.00024H13.5376C11.6261 6.00024 10.0766 7.45709 10.0766 9.2542V10.8811H8.6922Z" stroke="#B2B2B2" stroke-width="1.5" stroke-linejoin="round"/>
</svg>
